# xmcd
#
# Track frame offsets:
#	150
#	15117
#	30913
#	47582
#	73213
#	99343
#	123643
#	139123
#	158817
#	175255
#	189456
#	217524
#
# Disc length: 3380 seconds
#
# Revision: 1
# Processed by: cddbd v1.5.2PL0 Copyright (c) Steve Scherf et al.
# Submitted via: audiograbber 1.83.01
#
DISCID=910d320c
DTITLE=Whiskey Myers - Firewater
DYEAR=2011
DGENRE=Southern Rock
TTITLE0=Bar, Guitar And A Honky Tonk Crowd
TTITLE1=Guitar Picker
TTITLE2=Ballad Of A Southern Man
TTITLE3=Calm Before The Storm
TTITLE4=Broken Window Serenade
TTITLE5=Different Mold
TTITLE6=Turn It Up
TTITLE7=Virginia
TTITLE8=Anna Marie
TTITLE9=How Far
TTITLE10=Strange Dreams
TTITLE11=Song For You
EXTD=
EXTT0=
EXTT1=
EXTT2=
EXTT3=
EXTT4=
EXTT5=
EXTT6=
EXTT7=
EXTT8=
EXTT9=
EXTT10=
EXTT11=
PLAYORDER=
